Coordinates
version=1
nRows=22
nColumns=24
inDegrees=yes

Units are S.I. units (second, meters, Newtons, ...)
Angles are in degrees.

endheader
time	pelvis_tilt	pelvis_list	pelvis_rotation	pelvis_tx	pelvis_ty	pelvis_tz	hip_flexion_r	hip_adduction_r	hip_rotation_r	knee_angle_r	ankle_angle_r	subtalar_angle_r	mtp_angle_r	hip_flexion_l	hip_adduction_l	hip_rotation_l	knee_angle_l	ankle_angle_l	subtalar_angle_l	mtp_angle_l	lumbar_extension	lumbar_bending	lumbar_rotation
      4.04000000	     -5.56761255	      3.76717466	      5.21665570	     -0.38846671	     -0.03733098	     -0.17172618	     36.62115931	     -1.47302107	     -2.18632729	    -17.74047615	     -0.23395182	      6.85888130	     13.48855912	     -9.05287505	      8.21757729	     -6.80150721	    -23.08806552	     14.89665704	     24.92536643	     -7.04168413	      4.09877745	     -6.37792139	    -11.09847299
      4.04500000	     -5.56402330	      3.43372578	      5.18611028	     -0.38072689	     -0.03751492	     -0.17145814	     36.48430443	     -1.03241670	     -2.15916282	    -18.26537506	     -1.39376059	      6.40364274	     14.52426590	     -9.05337953	      7.66888380	     -6.87577105	    -23.77338342	     13.11407943	     24.79476316	     -2.92224368	      4.29401374	     -5.96473428	    -10.96321555
      4.05000000	     -5.61314475	      3.05358570	      5.13284254	     -0.37294470	     -0.03770737	     -0.17105838	     36.44010699	     -0.52018771	     -2.08976806	    -18.95927303	     -2.10617682	      6.31282451	     14.17748168	     -8.88694517	      7.01488407	     -7.20550737	    -24.69841040	     11.54330906	     24.96167113	      0.21385099	      4.55554821	     -5.52056483	    -10.80624427
      4.05500000	     -5.73771441	      2.65422535	      5.07133152	     -0.36522040	     -0.03796839	     -0.17059733	     36.49170483	      0.01369912	     -1.97277618	    -19.63015542	     -2.93799447	      6.14857776	     14.11918950	     -8.49563037	      6.29806269	     -7.68524282	    -26.00529452	     10.47202046	     25.43181843	      1.10083860	      4.88687935	     -5.06964312	    -10.64174413
      4.06000000	     -5.73872409	      2.20959369	      4.97640087	     -0.35735640	     -0.03788902	     -0.17025887	     36.34896399	      0.61379180	     -1.77621321	    -20.20102327	     -3.92205333	      5.86458100	     14.09958995	     -8.37171850	      5.58787864	     -7.90758412	    -26.72662993	      8.03786054	     25.24937483	      6.32131696	      5.11176622	     -4.52463409	    -10.44452846
      4.06500000	     -5.83353843	      1.76955773	      4.90189301	     -0.34957088	     -0.03792852	     -0.16982423	     36.35290637	      1.20646413	     -1.60398270	    -20.88880171	     -4.68267342	      5.68488567	     13.59223312	     -7.99643334	      4.82580614	     -8.26865390	    -27.82102617	      6.01989596	     25.37868331	      9.52611012	      5.41779648	     -4.01696012	    -10.24443507
      4.07000000	     -5.94508762	      1.35034469	      4.74052065	     -0.34175242	     -0.03797887	     -0.16928129	     36.36662451	      1.86014792	     -1.19790364	    -21.56053325	     -5.53209960	      5.25506686	     13.12107286	     -7.56791440	      4.08991717	     -8.66418148	    -28.98738034	      3.96626147	     25.47986913	     12.00200833	      5.75029079	     -3.51866085	     -9.90987561
      4.07500000	     -6.05773322	      0.90552560	      4.66086944	     -0.33397354	     -0.03800042	     -0.16884375	     36.36691383	      2.47789794	     -0.91843900	    -22.23983094	     -6.19684849	      4.96252248	     12.61208460	     -7.07468252	      3.30055084	     -8.99457835	    -30.16470074	      1.59999821	     25.47659516	     15.21813199	      6.07150990	     -3.00711209	     -9.70803636
      4.08000000	     -6.13031501	      0.46584609	      4.58548046	     -0.32622938	     -0.03797782	     -0.16844377	     36.30443334	      3.08929484	     -0.63552180	    -22.89685291	     -6.75812910	      4.66187571	     12.20017769	     -6.57309101	      2.51275543	     -9.27171804	    -31.39543951	     -0.88618495	     25.37759442	     18.03466106	      6.33992675	     -2.49727650	     -9.52268251
      4.08500000	     -6.20577440	      0.02542146	      4.49523359	     -0.31849123	     -0.03797776	     -0.16801965	     36.22219833	      3.71622373	     -0.33557325	    -23.51893702	     -7.23176797	      4.29959191	     11.85503273	     -6.01850137	      1.71997668	     -9.53042672	    -32.68311168	     -3.45962621	     25.20485991	     20.40954819	      6.61091237	     -1.98885454	     -9.32222599
      4.09000000	     -6.29398039	     -0.43411606	      4.41124308	     -0.31077614	     -0.03801130	     -0.16758126	     36.12319863	      4.36386609	     -0.05490668	    -24.08466308	     -7.64778126	      3.83231730	     11.59064265	     -5.38623321	      0.90296477	     -9.74579267	    -34.05380169	     -6.06571548	     24.94860537	     22.21691072	      6.89893790	     -1.46879003	     -9.13452099
      4.09500000	     -6.31839240	     -0.88980793	      4.37776630	     -0.30324137	     -0.03800221	     -0.16733262	     35.93488225	      4.95690915	      0.10250681	    -24.60453026	     -7.88510707	      3.44963574	     11.45589868	     -4.71147987	      0.12561682	     -9.81158608	    -35.64440919	     -8.42658462	     24.46228127	     22.12102278	      7.08098428	     -0.93813819	     -9.00263684
      4.10000000	     -6.45553516	     -1.34622580	      4.20018528	     -0.29558415	     -0.03811644	     -0.16664274	     35.82523757	      5.69837712	      0.52292897	    -25.03914185	     -8.33194216	      2.59619664	     11.31575602	     -3.96072310	     -0.68403724	    -10.02269034	    -36.99210543	    -11.33927784	     23.94327799	     23.84227450	      7.41767001	     -0.43741435	     -8.72206657
      4.10500000	     -6.43193875	     -1.78673927	      4.12309544	     -0.28819823	     -0.03808602	     -0.16626563	     35.53356766	      6.32304939	      0.69910838	    -25.46772392	     -8.37537432	      2.15942040	     11.26097459	     -3.25675643	     -1.43402335	    -10.07246201	    -38.57432271	    -13.90979944	     23.07085079	     23.41555242	      7.52762278	      0.06343322	     -8.56790163
      4.11000000	     -6.48970100	     -2.20714688	      3.97326494	     -0.28091624	     -0.03812341	     -0.16570007	     35.30546785	      6.99981994	      1.00327917	    -25.83103559	     -8.54967687	      1.44949921	     11.17951285	     -2.43059562	     -2.14366454	    -10.10514610	    -40.14308371	    -16.52911118	     22.09429859	     22.88475757	      7.70826301	      0.53697291	     -8.31960655
      4.11500000	     -6.55344688	     -2.64708948	      3.80480247	     -0.27361245	     -0.03820889	     -0.16503578	     35.03840941	      7.72122379	      1.31454688	    -26.11851490	     -8.61578687	      0.66956611	     11.23318217	     -1.56247452	     -2.88706854	    -10.19483750	    -41.74308271	    -19.04198615	     20.96722998	     21.97271949	      7.91127583	      1.01342926	     -8.06430337
      4.12000000	     -6.66863875	     -3.13772619	      3.57958647	     -0.26644642	     -0.03838472	     -0.16433195	     34.80780254	      8.51480248	      1.65117591	    -26.31506444	     -8.86012472	     -0.19269911	     11.65156631	     -0.55167908	     -3.67910008	    -10.31840716	    -43.55577213	    -20.97127856	     19.86979027	     19.42711323	      8.15360099	      1.55739255	     -7.73087990
      4.12500000	     -6.70039000	     -3.60747113	      3.39126804	     -0.25939840	     -0.03842073	     -0.16366192	     34.45763400	      9.27675849	      1.94891571	    -26.49832499	     -8.83965085	     -0.91029142	     11.69451815	      0.40928920	     -4.43062923	    -10.36221752	    -45.35502832	    -22.74861956	     18.56905913	     16.53211639	      8.28266138	      2.06934076	     -7.45800088
      4.13000000	     -6.74435848	     -4.08949965	      3.19579415	     -0.25242448	     -0.03844642	     -0.16295530	     34.09173325	     10.06162199	      2.25682684	    -26.63395583	     -8.79142410	     -1.65639075	     11.58829679	      1.42325060	     -5.19129023	    -10.39202145	    -47.18663467	    -24.18431937	     17.22479511	     13.25511672	      8.42111305	      2.58594546	     -7.18574099
      4.13500000	     -6.78766422	     -4.57219753	      2.99642669	     -0.24553628	     -0.03844024	     -0.16221567	     33.69856584	     10.85643539	      2.59037717	    -26.73071341	     -8.69667124	     -2.40183833	     11.34480599	      2.47470854	     -5.94698173	    -10.39856369	    -49.04312349	    -25.25204811	     15.85122172	      9.64565529	      8.54585876	      3.09872334	     -6.89903139
      4.14000000	     -6.82649105	     -5.04995676	      2.80396040	     -0.23872849	     -0.03838204	     -0.16148012	     33.27503809	     11.63838668	      2.89734046	    -26.78680362	     -8.55380842	     -3.11215615	     10.98389451	      3.55376321	     -6.68966900	    -10.37844758	    -50.90338750	    -25.93369135	     14.48352006	      5.85361606	      8.65961837	      3.60276623	     -6.62792425
      4.14500000	     -6.86865559	     -5.51062755	      2.61288901	     -0.23201065	     -0.03827592	     -0.16073799	     32.83176073	     12.40169142	      3.22427995	    -26.80944973	     -8.37710281	     -3.78894238	     10.53724439	      4.66186537	     -7.40063618	    -10.32842442	    -52.74619115	    -26.25129225	     13.13279586	      2.11256762	      8.76354806	      4.08074806	     -6.36749388
